Coordinates																							
version=1																							
nRows=34																							
nColumns=24																							
inDegrees=yes																							
																							
"Units are S.I. units (second, meters, Newtons, ...)"																							
"If the header above contains a line with 'inDegrees', this indicates whether rotational values are in degrees (yes) or radians (no)."																							
																							
endheader																							
time	pelvis_tilt	pelvis_list	pelvis_rotation	pelvis_tx	pelvis_ty	pelvis_tz	hip_flexion_r	hip_adduction_r	hip_rotation_r	knee_flex_r	ankle_angle_r	subtalar_angle_r	mtp_angle_r	hip_flexion_l	hip_adduction_l	hip_rotation_l	knee_flex_l	ankle_angle_l	subtalar_angle_l	mtp_angle_l	lumbar_extension	lumbar_bending	lumbar_rotation
95	-5.02077865	-6.23280963	-4.31295226	1.29200922	0.95020537	-0.64576137	29.33286428	7.79349379	4.30065712	-48.7591831	24.81200179	-17.348492	0	-22.13806196	-2.15248575	3.80420703	1.58306498	23.51949209	-24.08541659	0	-29.33948928	7.06430347	-4.34583673
95.01	-5.10331202	-6.25172073	-3.90749134	1.29277621	0.94827103	-0.64403311	29.01799819	7.80627922	4.00777826	-49.0105766	25.61441797	-16.69578469	0	-22.37706264	-2.42859775	3.90542769	1.42372186	23.83851811	-23.71601871	0	-29.10760232	7.23725278	-4.71682568
95.02	-5.32298057	-6.27582851	-3.65368066	1.29321174	0.9464333	-0.64221026	28.88010676	7.90932388	3.77186918	-49.34837608	26.64072699	-16.76557287	0	-22.51139239	-2.67131773	3.75630141	1.36272879	24.05606955	-23.17605105	0	-28.79990144	7.40313617	-4.93726956
95.03	-5.46497237	-6.27621725	-3.34379328	1.29382483	0.94472409	-0.64025388	28.67568247	7.98740585	3.54807415	-49.69611622	27.1594042	-17.19010561	0	-22.61329164	-2.90771088	3.6859217	1.09099914	24.13854081	-22.83930837	0	-28.56714595	7.52395394	-5.14842832
95.04	-5.60020228	-6.26412708	-3.04091285	1.29441384	0.94329598	-0.63817761	28.4920665	8.09864302	3.4443088	-50.01158852	27.58181207	-17.39548085	0	-22.63614878	-3.13218521	3.69000517	0.67545222	24.06841469	-22.70454507	0	-28.3697376	7.65346357	-5.24435992
95.05	-5.72865619	-6.20245883	-2.70032889	1.29479484	0.94219392	-0.6360826	28.29788024	8.12496448	3.26976314	-50.22122632	27.98391472	-17.51075183	0	-22.60095153	-3.32952096	3.55884301	0.18261293	24.04083801	-22.13816361	0	-28.24089387	7.7167533	-5.53586646
95.06	-5.79141616	-6.23633785	-2.6823141	1.29588418	0.94136011	-0.63306593	27.94005315	8.41884002	3.33735825	-50.3213185	28.40140179	-17.71456532	0	-22.67144517	-3.52490759	3.02648443	-0.44516693	24.01740439	-21.5779179	0	-28.1634434	7.72204827	-5.39312317
95.07	-5.77605869	-6.2204693	-2.51295171	1.29679655	0.94100874	-0.63040075	27.46992972	8.59000363	3.34182243	-50.30125009	28.58957221	-18.10078552	0	-22.67823788	-3.71900909	2.638106	-1.2558968	23.82066647	-21.06671202	0	-28.20245374	7.74383495	-5.3955789
95.08	-5.74399381	-6.25997672	-2.3562523	1.29765096	0.94117191	-0.62769258	26.89903728	8.78668833	3.26614861	-50.05816892	28.74662235	-18.19688101	0	-22.48930476	-3.95272228	2.50387221	-2.4599459	23.4507784	-21.02456954	0	-28.31333761	7.82451315	-5.41119585
95.09	-5.63527702	-6.26184467	-2.24392081	1.29861067	0.94175115	-0.62485295	26.14873223	8.99633261	3.34838498	-49.62943738	28.96229259	-18.3686297	0	-22.34507287	-4.13746451	2.20035124	-3.72979007	22.92004815	-20.9610178	0	-28.48891181	7.83308379	-5.37548282
95.1	-5.49548913	-6.2233229	-2.18377072	1.29970535	0.94268886	-0.6218266	25.29560758	9.27088292	3.63642842	-49.15103478	28.84639947	-19.09399043	0	-22.11040708	-4.26630656	1.87601101	-5.21703211	22.34908112	-20.81278769	0	-28.70724034	7.7907764	-5.18713339
95.11	-5.33441924	-6.13128667	-2.05428067	1.3008639	0.94393314	-0.6187728	24.34837443	9.42692608	3.84143058	-48.63379005	29.02821691	-19.33583992	0	-21.63078886	-4.37411356	1.59606862	-7.1762131	21.74291347	-20.68636052	0	-28.90376062	7.69283406	-5.14092133
95.12	-5.11993889	-6.06318712	-1.91640389	1.30175055	0.94572756	-0.61592303	23.30029174	9.66546838	4.24634639	-47.96786083	28.82139524	-20.13489937	0	-21.02153947	-4.50084362	1.3513532	-9.40165065	20.90573284	-20.76695076	0	-29.18218953	7.64067635	-5.00925492
95.13	-4.96672651	-5.86468089	-1.74371349	1.30263643	0.94760553	-0.61301661	22.2301302	9.73252506	4.62034669	-47.20948454	28.80581556	-20.67187384	0	-20.1382582	-4.52309111	1.17418815	-11.96105864	19.97706606	-20.89315113	0	-29.36812723	7.45320198	-4.92589783
95.14	-4.85744169	-5.68055367	-1.61851609	1.30358919	0.94963008	-0.61003133	21.10800569	9.83133329	5.04903585	-46.26026595	28.7700122	-21.2818755	0	-19.10288385	-4.57482975	0.80571916	-14.7141111	18.98067055	-20.82158322	0	-29.48298602	7.26756009	-4.70925742
95.15	-4.76688046	-5.49178827	-1.4124517	1.30436734	0.95190093	-0.60724828	19.96243467	9.87423553	5.38379636	-45.15300532	28.67021544	-21.87875939	0	-17.86551767	-4.65691134	0.58681592	-17.70203199	17.85204027	-20.74341937	0	-29.56959481	7.11741895	-4.5065695
95.16	-4.69656965	-5.31895484	-1.22053698	1.30510087	0.95423891	-0.60449527	18.81831847	9.92840643	5.73193139	-43.97395238	28.55105652	-22.46099569	0	-16.49987495	-4.76860722	0.36952336	-20.86352961	16.63440746	-20.66998074	0	-29.65078552	6.98510157	-4.24318915
95.17	-4.66603212	-5.13684851	-0.99538925	1.30561729	0.95671788	-0.60197363	17.75716341	9.91676453	6.01143896	-42.91136716	28.23633114	-22.84170787	0	-15.02345463	-4.88813838	0.14669461	-24.02493142	15.00528329	-20.59221323	0	-29.69718674	6.87215474	-3.96145633
95.18	-4.67474666	-4.95097997	-0.83133317	1.30613513	0.95907746	-0.59947742	16.7117796	9.91629865	6.33158951	-41.61779356	27.97292564	-23.48769467	0	-13.42569963	-4.98850009	-0.14639207	-27.28999114	13.28012099	-20.5813831	0	-29.70246752	6.74472465	-3.62547128
95.19	-4.65973673	-4.79227205	-0.67739451	1.30651139	0.96154089	-0.59697215	15.67807275	9.91466243	6.61641741	-40.39827997	27.62945206	-23.93012713	0	-11.82933352	-5.1006417	-0.4476356	-30.52801283	11.45282119	-20.64646044	0	-29.73969679	6.62432179	-3.25084954
95.2	-4.66445314	-4.57376451	-0.44366669	1.30648773	0.96391911	-0.59484869	14.74149657	9.73809614	6.61129476	-39.24703895	27.47713035	-23.91603826	0	-10.0650439	-5.19025987	-0.73922117	-33.94095026	10.00560919	-20.34843617	0	-29.79511794	6.48523802	-3.11174146
95.21	-4.65040331	-4.33866207	-0.43351893	1.30670927	0.96623422	-0.59230046	13.74982733	9.66426026	7.01720126	-38.07592361	27.08220406	-24.44135816	0	-8.41183098	-5.09403294	-0.8263311	-37.22422113	8.00263416	-20.99640583	0	-29.84337691	6.21674404	-2.6216837
95.22	-4.62100529	-4.10871133	-0.50387636	1.30698499	0.96835857	-0.58986519	12.75803944	9.51792131	7.26945657	-36.9740998	26.93472798	-24.37977577	0	-6.82250272	-5.12451832	-1.42609386	-40.39828009	6.3508758	-20.88243121	0	-29.89839299	5.93689987	-2.19881294
95.23	-4.5213531	-3.79473916	-0.47898371	1.30673882	0.97056486	-0.5877561	11.75101415	9.24524781	7.44746598	-35.90618635	26.7314338	-24.4465596	0	-5.27477504	-4.90422247	-1.4929093	-43.40035725	3.99625297	-22.01433398	0	-30.06173716	5.59826721	-1.86715827
95.24	-4.3862958	-3.44058899	-0.42500999	1.30634241	0.97267464	-0.58579729	10.70386417	8.8918815	7.50435153	-34.84419959	26.67082294	-24.28795798	0	-3.79782473	-4.69136779	-1.59324754	-46.23922293	3.39966453	-21.79832666	0	-30.25233497	5.2289029	-1.7190757
95.25	-4.23408271	-3.14562727	-0.48599776	1.30600485	0.9745569	-0.58368188	9.67259526	8.59211352	7.56968562	-33.83198057	26.68203472	-23.98643949	0	-2.5071382	-4.46376301	-1.63500417	-48.83132369	4.76226111	-20.56775723	0	-30.45288294	4.88345406	-1.25170016
95.26	-4.09089062	-2.87446293	-0.55588516	1.30555802	0.97624086	-0.58168699	8.66331425	8.30359161	7.6076742	-32.85714899	26.69158514	-23.55800755	0	-1.22387107	-4.37194613	-1.90818095	-51.27433419	6.99716089	-18.63436307	0	-30.60071514	4.54470822	-0.93624758
95.27	-3.90677673	-2.62126938	-0.62456949	1.30500673	0.97792504	-0.57965756	7.60384206	8.0346408	7.66893591	-31.80968857	26.7081142	-23.2704255	0	-0.03312144	-4.35470838	-2.25445296	-53.45792973	9.15330973	-16.67815172	0	-30.81617834	4.22660645	-0.59842909
95.28	-3.7761716	-2.41143813	-0.68530529	1.30436105	0.97928064	-0.57773073	6.65882338	7.79966061	7.64410072	-30.87140778	26.74835979	-22.90471831	0	1.25039592	-4.16913234	-2.1696609	-55.52785495	10.59920381	-15.80150501	0	-30.93323528	3.94470831	-0.25782535
95.29	-3.66894574	-2.24421545	-0.77924067	1.30355985	0.98055503	-0.57568778	5.71164733	7.62695748	7.73224982	-29.81094081	26.76485841	-22.62548923	0	2.53151563	-4.19915054	-2.40826295	-57.42209275	11.92567698	-14.67328268	0	-31.0373699	3.69029393	0.12445157
95.3	-3.5875596	-2.0209307	-0.87374367	1.30247074	0.98163913	-0.57397948	4.84862474	7.35561336	7.71798216	-28.8602362	26.95049877	-22.08115289	0	3.85534828	-4.08909489	-2.55413039	-59.14079087	12.84564999	-14.0387024	0	-31.11753874	3.40355369	0.52529335
95.31	-3.47851056	-1.8841872	-0.94725273	1.30173757	0.9827551	-0.57213993	3.91296483	7.22146731	7.73777454	-27.92534943	26.84812921	-21.82858018	0	5.0641191	-4.04385606	-2.57934328	-60.62479181	13.70102363	-13.56039966	0	-31.19384439	3.19925726	0.8726053
95.32	-3.3880368	-1.7495465	-1.07143291	1.30074624	0.98389895	-0.57033337	2.92589304	7.092677	7.9334833	-26.75816153	26.66453505	-21.78006971	0	6.25285993	-4.07740694	-2.78437739	-61.88164755	14.5506027	-12.87981346	0	-31.28826726	2.9720092	1.31324182
95.33	-3.28811592	-1.56900915	-1.23414365	1.29984875	0.98488184	-0.56861113	2.07549337	6.92313549	8.16111492	-25.93339902	26.55192148	-21.69931962	0	7.38916182	-4.03891636	-2.99200676	-62.95717629	15.40131649	-12.26093851	0	-31.36938462	2.68855457	1.69954315
